# xmcd
#
# Track frame offsets: 
#        150
#        18387
#        40605
#        67967
#        87417
#        107857
#        127122
#        143527
#        164120
#        187177
#        208295
#        226635
#        248397
#
# Disc length: 3544 seconds
#
# Revision: 8
# Processed by: cddbd v1.5.2PL0 Copyright (c) Steve Scherf et al.
# Submitted via: ExactAudioCopy v1.0b3
#
DISCID=b10dd60d
DTITLE=Josh Groban - Closer
DYEAR=2003
DGENRE=Pop
TTITLE0=Oceano
TTITLE1=My Confession
TTITLE2=Mi Mancherai (Il Postino) (Featuring Joshua Bell)
TTITLE3=Si Volvieras A Mi
TTITLE4=When You Say You Love Me
TTITLE5=Per Te
TTITLE6=All`Improvviso Amore
TTITLE7=Broken Vow
TTITLE8=Caruso
TTITLE9=Remember When It Rained
TTITLE10=Hymne A L`Amour
TTITLE11=You Raise Me Up
TTITLE12=Never Let Go (With Deep Forest)
EXTD=
EXTT0=
EXTT1=
EXTT2=
EXTT3=
EXTT4=
EXTT5=
EXTT6=
EXTT7=
EXTT8=
EXTT9=
EXTT10=
EXTT11=
EXTT12=
PLAYORDER=
